# xmcd
#
# Track frame offsets:
#	180
#	14160
#	29344
#	44284
#	59565
#	71130
#	86903
#	99858
#	111825
#	123382
#	136925
#	146867
#	161129
#	174542
#	187829
#	202131
#	214766
#	227127
#	244283
#	257333
#
# Disc length: 3631 seconds
#
# Revision: 2
# Processed by: cddbd v1.5.1PL0 Copyright (c) Steve Scherf et al.
# Submitted via: audiograbber 1.82.02
#
DISCID=2f0e2d14
DTITLE=Artistas varios - 100 Boleros
DYEAR=1997
DGENRE=Bolero
TTITLE0=Leo Marini - Amor de mi Vida
TTITLE1=Hugo Romani - Verdad amarga
TTITLE2=Hermanos Arriagada - Sigamos pecando
TTITLE3=Raúl Shaw Moreno - Sabras que te quiero
TTITLE4=Aldemar Dutra - Que quieres tu de mi
TTITLE5=Lucho Gatica - La barca
TTITLE6=Miltinho - Amor de pobre
TTITLE7=Leo Marini - Llanto de luna
TTITLE8=Alfonso Ortiz Tirado - Tu lo sabes
TTITLE9=Genaro Salinas - Traicionera
TTITLE10=Hermanos Arriagada - Te seguiré queriendo
TTITLE11=Raúl Shaw Moreno - Mientras me quieras tu
TTITLE12=Aldemar Dutra - Me esta doliendo el alma
TTITLE13=Lucho Gatica - Obsesión
TTITLE14=Leo Marini - Ya lo verás
TTITLE15=Fernando Torres - Cobardía
TTITLE16=Nat King Cole - Quizás, quizás, quizás
TTITLE17=Gregorio Barrios - Nosotros
TTITLE18=Aldemar Dutra - El último romántico
TTITLE19=Lucho Gatica - Contigo en la distancia
EXTD=
EXTT0=
EXTT1=
EXTT2=
EXTT3=
EXTT4=
EXTT5=
EXTT6=
EXTT7=
EXTT8=
EXTT9=
EXTT10=
EXTT11=
EXTT12=
EXTT13=
EXTT14=
EXTT15=
EXTT16=
EXTT17=
EXTT18=
EXTT19=
PLAYORDER=
